<mxfile host="app.diagrams.net" modified="2023-06-11T18:08:36.291Z" agent="Mozilla/5.0 (X11; Ubuntu; Linux x86_64; rv:109.0) Gecko/20100101 Firefox/114.0" version="21.3.7" etag="KOTC8z4IhKaz13efsjMp" type="github">
  <diagram name="Page-1" id="yOkNFFjhXndwXlvrcWDX">
    <mxGraphModel>
      <root>
        <mxCell id="0" />
        <mxCell id="1" parent="0" />
      </root>
    </mxGraphModel>
  </diagram>
</mxfile>
